<mxfile host="" modified="2020-06-27T19:05:45.553Z" agent="5.0 (Macintosh; Intel Mac OS X 10_15_4) AppleWebKit/537.36 (KHTML, like Gecko) Code/1.44.0 Chrome/78.0.3904.130 Electron/7.1.11 Safari/537.36" etag="CsvzPGFJF8I-URnx500N" version="13.1.3">
    <diagram id="6hGFLwfOUW9BJ-s0fimq" name="Page-1">
        <mxGraphModel dx="1248" dy="226" grid="1" gridSize="10" guides="0" tooltips="1" connect="1" arrows="0" fold="1" page="1" pageScale="1" pageWidth="827" pageHeight="1169" math="0" shadow="0">
            <root>
                <mxCell id="0"/>
                <mxCell id="1" parent="0"/>
                <mxCell id="10" value="" style="shape=image;verticalLabelPosition=bottom;labelBackgroundColor=#ffffff;verticalAlign=top;aspect=fixed;imageAspect=0;image=data:image/png,iVBORw0KGgoAAAANSUhEUgAAAggAAAEXCAYAAADIlLywAAAgAElEQVR4XuydBXhVR/rG37i7QkJCQojg7k7RAlWq1N22srVtt1vvtt3917ey7W63LpTi7i5BEjxA3N3d/s879FJKAyS3J+Scyzf7ZGlyz8x8837nnvnNN3KsSsqqm2EFSaKAKCAKiAKigCggCigFmpqaYVVZXdvs7GgvkogCooAoIAqIAqKAgRWob2hEfX0DrKyt0dTYBHs7W9jZ2bS5RQ2NTSivqIFVeWVNs6uzQ5sLkAyigCggCogCooAo0LEKNDc3o6a2AaXlNWjkqN/q1ymBpqYm2NpYwc3VAQwEnP7ZuaxuaGhCSXkVrMoqa5rdBBA61sNSuyggCogCooAo0EYF2JGXVtSgtq7xvDkd7G3g4eoIW1vr816rAKFCAOG8QskFooAoIAqIAqKA3hSob2hCYUmVWivQ2sRoQ4CPC2xtzz3tIIDQWkXlOlFAFBAFRAFRQEcKsKMvKq1uVeTgTLMZSfDycIL1aVMRZ14jgKAjZ4spooAoIAqIAparwDPPPIOlS5di8uTJePXVV2Fv/8c2BlRU1qKsss5swTzdHeHsaHfW/AIIZksrGUUBUUAUEAVEgdYrkJiYiBMnTuDll1/Gc889hylTprQ+8xlXckoht7ACza2fWfhdXbY21vDzdj7rokUBBLPdIxlFAVFAFBAFRIG2K3DDDTfAzc0NEyZMOGtmb29vTJo06ayfc8cCpxf+aPLxdAanG1pKrQIEkkp+UQlKyyv/qC3tmt/b0x0+nm4t0hDnagqLy1BeWd3qLR7taqzGhdtY28DF2R7UQJIoIAqIAqKA9gokJqdhwdKVSDiehKDOgbhs+iT0iomEra1tmyr76quv8NBDD8HT07PFfGVlZfDy8gIjDmdL5VW1KK/4dXqBWxkrKsrh6OAIe4ffHlnA/q+q6mT/7eLi+psi3V0d4Orc8lRHqwAht6AE38xfh8rqmjaJcKEv9vF0x01XTYSbi9Pvqq6oqkFlVQ38fVt2yIW2VfP6mglxpfD3sdD2aS6YFCgKiAKiQOsVyMjKxjc/LsTIoYMQ1rUL8vILsGrdJowePgTDhwxo08Bz165d+Pzzz/HRRx+1aACnH+rr6/H666+f1UCed1BZXX/q87S0FLz31psYNXY8Lrv86t/YU1VVhX9/9D7q6mrx2BPP/AZoXJ3t4O7q2GI9rQKE1Mw8fPHTmtYr2UFXOjra467rpsLL47eERHPKKqrg5GgPuzaSXgc1xaxq6xsaLLp9ZokimUQBUUAU0ECBdz78L3rGRGLi2JGwtj55CFF6ZhYWL1+Lu2+7AbY2rT+pcP/+/XjxxRcxb968Fi276aabMGfOnHOuUTgTEEpKirF44c/oN2AwOnfujLLSUgR3CcGxhCMIC4/Apo1r0dDQgOmXzoK19a+2ujjZwcPtYgAEB3vcdX3rAIF0tn3XPqSkZ2DcqGEICe78G0cxJMPFH6Ybgb+feTKVtfXJgyb4GVNrT6fS4F5tsYg/CghsR2VlFVxdXU6Vzxuqrr4Bzk4t30Dt1RYjl0sdy8rK4eEh0z1G9qPYLgqcrsC9jz2Lpx+5D11Dgk/9mc/Lr3+cj1uunw0OUFub0tLS8Ne//hVffvnl77Lk5uZi5syZWLFiBbgO4WypvLIW5WfsYDD1RQlHj2De3G8xfuIUbN28Afc9+ChcXV1VX3VmP+Xh6qCmp1tKFyyC4ObqhN5RXbFtz5HWatjm6xzbAAgUqqKyCktWrFVzSdk5ebhy5hR8P28xZkydiKUr16GgsAjTJ4+HlZW1+t3Z2QlDB/ZDSVkZtu7YjT49ozF54hj8MG8xysorcOuNs+Hi/PvpjTY3xMwMLQFCTU0Nvvj2Z9x0/ZWgPn9/+yM88dDdsLf/dWtLVnYu8vIL0SOmO3bE7sWoYYNhgp/8wiJFyQP69GqTVQ0NjTh09BiKS0rRt1cMvDw92pS/pYt37Y1HWEgX+Pl6qxt9xdpNGD9qGBwdf39EOP1ZVVODbl1DWqy3sbERf3npTdx18/Xo3q3rH7bt9AJqa2vx5nuf4Lkn/nTecguLipGcmgEHB3tERYT/xi/nzWzGBZVVVdi1Zz/Gjx5mRm7JIgpcvAo8/9rbmDltIgb273PqvYaFRSX4ft4i3H3r9bCzO/t2wTNVKy4uxuzZszF8+HDYnBF5KCwsREpKChYvXnxOsatr61Fc2vK0f11dHTZvWo+01BQMHzEKkVExp57pZxbq6+UM+7O8p+GCAYKnuwuGDYjB3gMnENO9i3p5BEMynh4uyMkrhquLE9ZujUNVda3Zd2BbAMFUyYIlq+Du7oq4A0fwwJ034a1/fYqJY0YiMTVNdUaJKak4eiwJD951M9Zv2g4nJ0fU1NZi+qRxWLpqPYYO6o/V67egd49IDOjXGw6ndbxmN+QsGTma375rrwpzcT7M0dERkd3CTl3dEiBUVlXjzXc/Vnbfc+uNeOr51/DmS88gdu9+FS2I7B6GkpIyxB88ghuvuRwJJ5JUp7pp2y5YwUrNrRUUFaNzJ38FRexYCRC79u5XUYXhg/v/7ovBgMriFWtQWFgMPz8fuLk4o1/vnkjLyFTRiaBOAcjOzVeARqCqrq5R+4GDgwJRUFiMTgH+SExOgYe7Owg4peUV6B7eFbn5BfD28kRxcQnKK6swf/FK3H/nTcgvLFRf2NCQYNUmll1UXKKmW4YN7t+imnEHDmPDlh3wcHfDLddfhSMJJ9TCI18fL3QLD8XufQcUUI0aPgQbt+yAg4MDekR1w8498eqLNnbkUOzcvQ+NjU0YOXQg3N3dwM5+w5adcHVxxoq1G/HUI/dib9xB2NhYY8jAfi1C0uZtsQqkvDzcVZtunzMbaRlZqh3BnQNR19CAgoJC+Pv7qXsrKTkdjk4OCAoMQGZ2Dhi7Cg8NwdHjifD381FtzsnLVzaGdglCQUERKiorERjgr+ovKinBD/OW4NYbr1b1cGET7yE+pMorKkBYtLGxVXmPnUhS5dg72MPPx1vBHn3G/2ZdkkSBi0mBffsPYd2m7bjmiunw9fFBZWUl5i9ZpZ6D11/NsP35jy4+Xa81a9Zg/fr1CA4O/g0kpKam4tJLL8WIESPOKS+fPflFVWj6A/scedyyn9cf3OaoxRoEAsLkMQORmJIFBwc7eLi7gE+3ispq1UAfL3es2xavfjc3tQUQSkrLwBWpazZsUXNKC5euwg2zL8OX3/+Mqy+bht1xBxARFgp3Nzfs3B2HsK7BqgOJ7BaOwpJijBsxDBu27lAdRXJKurrm+tmz1IO1vRJ1SkxKxZ64A+gU6I8hA/vCyfHX0P/ZAOHzr3/E0EH9kJSShrUbt+Lm669WI/CI8FB8/cN8XD5jClLTMzFq6CAsWLYKRUUlGDNiiOqMa+vqcCIpBV1DumDXnjis37Idf37gLvwwfwlGDRukpmfOXMHL6Zt/vPdvPHr/HQpM6urq8cY7H2PqxDHYfzgBPaO7I3ZfPIYPHqCmecaOHKIAbfTwwUrTOddcjudefUt17s1NzbC2sYaPlycqq6vROcAfq9ZtxoSxI/Cfr37EC089jOPJqUhMSsHQwf2xau0mBW0HjxxFVPcIBTBnJkLOp1/+oNpISJh9+XR88+MCXH/VTDQ0NmL5qg1wdXNRUSX6l2B4xcwpWL95h2ov7zNet3nbLmRm56rPuncLwxff/qQ0sbG2xvuffoHxo0agSHWqlRjQt6dq75mJwOfq6oye0VH4/Ju5mDZ5HNZu2IIeUZHYG38QHPGz7EH9e+Pfn3+r2s0dK1Hdw3EiKVX5ZkDfXnj5H+/h+acewbdzF+LymZOxaNka3HbjbJSWlSE/vxDlFZWYOe2SU4Aw59rLcfRYooKTcSOHoWtoFwVnSalpOJ6YghGDB+Af7/8bd91yndKb0TLePyOGDlAQ9OBdt8DOrm0rt9vreyHligIXQgHC9PrN29Xgit9/Dkq8vDxRXl6B2+dcoyKbrU3Z2dl45JFHwH+ffPJJzJgxQ2VdtGgR/va3v6mpBUYQXFx+ne5tqeyKyjqUVZo3qOYBil7uTnB0OPv3+IJFENg4Rwe7k++WtrKCq7MjIsODYWdrg70HT6h5bv78kdQWQCgtL8eipWvg7eWBKRPHYMuO3ephz7OpZ0yZgM3bY1UHMXn8aLi4OGFP3CH1e3RkOJydnLB15x706RWN3jFRWLxyrXpoz5p2SbuHiE3rBDjdcSaxnhUQvpmL+26/Ed/MXaimSh5/6G41fdIjKgLzl63C5ZdOxqEjx1Vnumr9ZtTW1iE8LAQhQZ3R3NSEY4nJ2LQtFrfNuRof/edr/PnBu8EQFqMEM6de8jsoItm+89F/FWl7e7Jjr8Gr/3wfr/3tSezetx/ZOblAsxWunDVVTfGwg124dDVioiLUF5Ad9cv//ECtFu4ZHQFHBwcV4bCzt4Obq4vqGGdfNh2vv/0Rhgzqi6ysPDX6nTJxLBYuW4WH77sd+w8eUfq0FEHILyjEF9/9DH9fb3AKZdig/tgTf1D5jw8BjupjoiPUrRjdvRt++Hkx5lx7BeYtXI7ePaPh6eGOHbH70L9vLxxJOI6YyAhERoThp4XLERbaRU0X/PerH3DplJN7nAlanLdsaZpl2669KprG/N/9tAjjRg3Hp198h+CgTmqkPqh/HxWp4uc/L1qBd994XtkYf+gIjh1PVtEsgt37n32JT956BX/+66t4/qmH8fUPCzBi6EAVceI9zgjBtVfOQHFpqYog9OsVgwNHj6GqugZTxo9W2jPqwakmwjPv+48//xavPPsYlq/ZgOqaOri7uWLyhFF461//wWP33w5nZ+c/8nWVvKKA4RRQz9+qalRVV6uBgrOTM9Zv2oZN22PxxJ/uVt+R1qTY2Fh1kmLPnj1V9PT5559X2bgwMTo6Gnv37lU7GCIjI89ZHO0pLq1GTSte0nRmQU4OtuBJiudaO3dBAeFMAxl6ZRShsampNZqe95q2AAILY2Tm9GOoz1zAoRZ8WFkhKTkVBw4nqPonjRsFFxfnFhd7nNfAdr6gJUDgtARHir16RKl1Elt37saE0SPAEHt1TQ0iwrvCx9sTcfGHEBTUCXX19QjuFIide/Zx2SV6RkeqMH9NbR1ycvNUtIdz9uyk7e3s0L8Pb/Dfz70x5M0pCSZew7k6Ffq2ssboEYNx+OhxFbnhVMaEMcOxYfN2xER1x6LlaxDg76tGsRwZh3ftogCB4W4bWxuEdglWIX9rGxukZ2Sp6AOv5ZqHcaOHqfn8jMxsNbrtEd1djXzPTKVl5eAPF6byi35yasFbRSHc3N0QFhIMhhMZ/RjUrw8Sk1NVB83wOv9uCt8z6sIvV58e0fDwcFPRFkYVXJyd0djUqOo/fPSEsoU6curhzMRo0Lade+Dm5qp8MXRgX8xfslK1Z/CAvgpa09IzleYsPyUtQwFHcOdOCk44ZaMgZv4S/PXxB1XUgVMsBw4dVXu04w4egZOjg3pwXTJuFMrKy7FizWZEdQ9T9zSnePr26qF0JkywTXxg9e/dA6+9/REmjRup2h0d2Q374g+qEZOnhxumThzb5pBqO9/+Urwo0CEKMELK71JMVDc1eGxNKi0txWuvvQZOJ7zwwgsKCph47sFjjz2G7t27K0BozfkKfFlTSVk1+G9rk72dNTzdnM77RscOBYTWNqa117UVEFpbrlGuq69v0FXY93w7QVrStaVVtufTvyWw6+gdJeez+Xyfn94mRgxamt9sSatvf1qk1lVs3RmL5596VEUnzqZFS/lNf+O99Nwr/8Srf3tCRR8IGlyDMG7k0A7frXM+7Szh89y0ppO7o5oZyG5Wa034f6dPN5/6b/69hc/Vn345hvfUv79cp0rlZ6bPf7m4mYHzXy7+Tfm87pePTuX9Nfupcn4p/uTvpx0BrLKb7DzNLuUr9XdTBaf/96m//to+tTLqZAGmNtOwX/OfrPR30/It6WC6UU6zy2QP/+3WxwYevm1bV9BR9x6fEcVlrXvdM6cUvM4TOTC1o1WAkJaZjy/mrTm1na+jRDhfvTzn4E5uc3T/fZiHhyTxx7OFMxLOV64hPm8GikrLEejnZQhzxcj2UYDTQ6npGQgM8FPrZ8xNplCqKerBSBSjR4waSWp/BSpKTFunf6nr5Lb7k52j6b9/+Ze/t/j3X67lZ6c+PzOv2p79ax2/lmMFK/bov1R2jhf+tb8YUkOrFOD0PY9frqlrUNEEQsPJW8BKbde3s7VW6w0cHGzP+QbH0ytrFSCUlFXip2VbkJNfpELEekxceMY1DZdPGd7iTgI+8FIycsGRkelsAz22w1ybmpug5ui7BvubW4TkEwVEAVFAFDC4Auzrmpqh1vvxf9a/AAIjiW0FvVYBAvXiAkJ2wm2u4UKJ3dyswuttOc3qQpkm9YgCooAoIAqIAu2pAAe/3F3BKJ9a33daYvSvrq4BDva2ChzO/PxsdrUaENqzYVK2KCAKiAKigCggCpivwIGjKWrRYUVlDQb16f6btULZeUUoK69CSJA/cvOL0bVLQKsqEkBolUxykSggCogCooAooF8F9hw4gUB/Lxw4kqzOFeLuCm8vd/UW5srKGrWchIuW/bw9EB3RpVUNEUBolUxykSggCogCooAooF8FYvcfVwv0XZwdkJiaDXc3Z9TU1CMqPAjFpRXqjJ9DCakIDfYXQNCvG8UyUUAUEAVEAVFAWwWOJ2ciONAXdva2OJiQqk4l9vFyQ0hnfzW9wOmH5PRcBPh6KUhoTZIIQmtUkmtEAVFAFBAFRIGLTAEBhIvM4dJcUUAUEAVEAVGgNQoIILRGJblGFBAFRAFRQBS4yBQ4BQhFJZXN3CMpSRS4kAqcPLzDdJTbhaxZ6hIFjKWAeq3vH3i1r7FaK9bqQQGepVldWwerkrKqZg+31r1oQg+Giw2igCggCogCooAo0H4KnIogCCC0n8hSsiggCogCooAoYDQFBBCM5jGxVxQQBUQBUUAUuAAKCCBcAJGlClFAFBAFRAFRwGgKCCAYzWNiryggCogCooAocAEUEEC4ACJLFaKAKCAKiAKigNEUEEAwmsfEXlFAFBAFRAFR4AIoIIBwAUSWKkQBUUAUEAVEAaMpIIBgNI8Z3N7a2lrs27fP4K0Q80WBjlegT58+cHZ27nhDxAKLVUAAwWJdq8+GpaenIyQkRJ/GiVWigIEUSEhIQGRkpIEsFlONpoAAgtE8ZnB7TYBgY2MjRywb3Jdifsco0NzcjMbGRgggdIz+F1OtAggXk7d10FYTINjZ2cHa2loHFokJooCxFGhqakJ9fb0AgrHcZkhrBRAM6TbjGi2AYFzfieX6UEAAQR9+uBisEEC4GLysozYKIOjIGWKKIRUQQDCk2wxptACCId1mXKMFEIzrO7FcHwoIIOjDDxeDFQIIF4OXddRGAQQdOUNMMaQCAgiGdJshjRZAMKTbjGu0AIJxfSeW60MBAQR9+OFisEIA4WLwso7aKICgI2eIKYZUQADBkG4zpNECCAZzG/dA1zc0GMzqX83NSM9At27hkG2OhnWhGN7BCpgA4eDBQ+ge2b2Drflj1dvZ2sp5KH9MwnbNLYDQrvJqX3hZRSXue/IV7Qu+QCVWVZRhwVcfCiBcIL2lGstTwAQIM66/G+6e3oZu4MtPPYDw0GBDt8GSjRdAMJh3BRAM5jAxVxTQWAEBBI0FleLOqoAAgsFuDgEEgzlMzBUFNFbAEgChGYAVAIkgaHxzaFycAILGgrZ3cQII7a2wlC8K6FsBAQR9+8eSrBNAMJg3BRAM5jAxVxTQWAEBBI0FleJkisFS7gEBBEvxpLRDFDBPAQEE83STXG1XQCIIbdesQ3MIIHSo/FK5KNDhCgggdLgLLhoDBBAM5moBBIM5TMwVBTRWQABBY0GlOJlisJR7QADBUjwp7RAFzFNAAME83SRX2xWQCELbNevQHAIIHSq/VC4KdLgCAggd7oKLxgCLBAR+gUrKytHQ2GhxjqysrMZfX//AsO2SkxQN6zoxXCcKWBIgjBsxGJ4e7jpRVlszZs+8RNsCO6A0iwSEyqpqLF29GYXFpR0gaftWyfcw7Ny7v30racfSBRDaUVwp+qJQwJIAoV/PaLi6OFuk3+67dbbh2yWAYDAXCiAYzGFiriigsQICCBoL2k7FCSC0k7B/tFiJIPxRBdsvv0QQ2k9bKfniUEAAwRh+FkDQqZ8EEHTqGAACCPr1jVhmDAUEEIzhJwEEnfpJAEGnjhFA0K9jxDLDKCCAYAxXCSDo1E8CCDp1jACCfh0jlhlGAQEEY7hKAEGnfhJA0KljBBD06xixzDAKCCAYw1UCCDr1kwCCTh0jgKBfx4hlhlFAAMEYrhJA0KmfBBB06hgBBP06RiwzjAICCMZwlQCCTv0kgKBTxwgg6NcxYplhFBBAMIarBBB06icBBJ06RgBBv44RywyjgACCMVwlgKBTPwkg6NQxAgj6dYxYZhgFBBCM4SoBBJ36SQBBp44RQNCvY8QywygggGAMVwkg6NRPAgg6dYwAgn4dI5YZRgEBBGO4SgBBp34SQNCpYwQQ9OsYscwwCgggGMNVAgg69ZMAgk4dcxEAQpcuXZT4fIiXlJSgsrJSE2dERkaiqKgIBQUFmpRnlEL8/f3h7e2No0ePttnkwMBAVFVVoaysrM159ZxBAEHP3vnVNgEEnfpJAEGnjjEoIDz55JO499574evri6ysLFx//fU4cOAArK2tUV9fDzs7OyU4//uzzz7DunXr8PTTT+PVV1/F999/DwcHBwUM/NzW1haNjY2wsbFRefgv/87PTYnlsey6ujo0NzerP9MGZ2dnvPLKK+pvLIef81r+zjKYh7+b6rKysoK9vf2psnkN62Ne/jfzmfLzWpbHxDxMpt9pP681/c5rTW02XWf6nXXzx1Svqc3MQ/saGhrUv/ypra1V9Zjaa/rdZDd1mjJlCq699lrcfPPNyu7T9TLVyetZj6ksU1tWrFiBhQsX4sMPP/xNm07XxZRPv9+Y31smgGAMbwkg6NRPAgg6dYxBAcHd3R0jRozAyy+/jCuuuALV1dX461//CicnJ/zvf//DTTfdpDquL774AoMGDcKxY8fwz3/+E6+99prqmEaPHq062I8++gg9e/ZE165dkZmZiaioKLi4uGDfvn34z3/+o5wWGhqKZ555RnWgW7ZswZdffqny3nLLLaioqICXl5eqg/UxX79+/dR//+lPf8I111yDAQMGqLysOzo6GldddZX6PCcnB6+//rqCFoJGWloa5s6di7/97W8oLS2Fp6enyuPj44Nbb71V1bl27VoUFxerMth5v/jii8jPz0dISIjSgvbQ/o8//hjTpk1TILR+/XrVBpON//rXvzB8+HDVbmrBcggabMfnn3+OwsJCPPzww8rGrVu34quvvlI2de7cGezIf/75Z0RERChbH3vsMWV7cnIy3nrrLbzwwgvKbtb79ttvg36aM2eO+v2nn35S1y9YsACJiYmYPXu20pflETwuv/xyZcs//vEP5QsjJQEEY3hLAEGnfhJA0KljDAoIVHPo0KGqUxo5ciQY9t60aZP6Gztj/s6OevDgweq/t2/fjvvvv19FDxhtGDJkiOq8H330UaxatQoBAQGqQ/vmm29w5ZVXIiUlBTU1NaqTZMfN65YsWaLquPrqq9Xn//d//6c6a3ac/IwjccIJf2cHzU6OAMKOl6Ntdowsn/CSmpqqOsbY2Fhl71/+8hcsW7ZMja4feeQR1Q6CyM6dO3HZZZfhzjvvRG5uLpYuXao6fEZN2JnzbwSH3r17qw6YUMCpj+nTpyswSUhIUHCzcuVKNfLv0aOHGv27urqivLxcacLOnZowGkNoeOCBB1R7Wd7+/fuxefNmZQ9/Jk6cqKYXCGW0jdM1X3/9tWo3IeK7777DzJkzlb6sixpRj27dumH8+PEYOHCgiubMmjULN9xwA4KDg1V+tvXgwYOqbQQeU5RGv9+a31omgGAMTwkg6NRPAgg6dYwFAcIbb7yBe+65B/yXI1KOpDnf7efndwoQ5s+fj+uuu06Nfjka5miZcPDOO++o9QQc7bJz42d33XXXqZH+6tWr1Zw7y/33v/+tOrHTAYGjd46qGaVgR/rBBx+oMD0jExs2bFAQ8/zzz+O///2v6nwJE4wcsHMODw9XkMKR+K5du1RUgZ08w/DsxNnpE0xoK8Pv27ZtU3VccskluP322xVsEBDY0Y4dOxac5+d0CqMh3377rergWdakSZPUZ6YpEY7in3vuOVUnoYFAxKgIowdTp05VcMG8hBFGZmbMmIGgoCBVNwGBURl26gQdtpdww7yEDUZ3aAujH4wKmH4ILYxKECI2btyoAIPRC+o7btw4BTEElMOHD+v3C9OCZQIIxnCXAIJO/SSAoFPHWBAgMBx/3333qY74xhtvVJ37jz/++JsIAuGBHSs7I3b27777rhrFcnqC0w7s6NgZssO+++67ldMY+iZA8HqO8h966CH19/MBAutnR8/wPzt/jpoZTWAd7Bi5uJGd6Y4dOxSQMCpBwHj//fd/AwiEEdbJToidK0GGHSzLHzNmjMpHQOD0B6ctCEaMSDDqwBH9p59+qkbow4YNU3n4GQGAkZGWAIHQ8uabbyqbONpnp0+I4DQBwYYgEhMTo0CMUQzWRxsIEISE0wGBkESYINjMmzdPRTV4DaMQd9xxh9KUWrMuRif4L9smgHDhnxdcWWMFoF/PaLi6OF94Ay5AjQIIF0Bkc6oQQDBHtQuTp6qiDAu++vDUwrQLU2v71tK9e3ccP378rJUwxM7Q/pmr6dlBcdTPTvL0xI6dHSQ74LYkdsi0xbTinx06R+GMajBy8Oc//1nZwTrPZa+bm5vqPE32cjqAYXhGFZh69eqlOmtCCKcdTl9gabKXoJKent6q8D3XEbAMU31sB6cKmP/MRAii7S1NC9BmAlhGRsbvPic0OTo6KuBh4nWMmHD9hdGSRBCM4TEtAYH3NOLP7EcAACAASURBVKfZCLYeHh7q+9lSIlSbFh9roVJDQxNKKqpgVVJW1ezh5qRFmR1ehgBCh7vgrAZYIiDoVW1OQ3CBIEfOa9asQV5eniamsrMlcBw6dKhVAKBJpVLIKQUEEIxxM2gJCIyEMQrG6UNGE/ndPjMxcsYoJcGXa3RMO6X+iFodDgiknbPRkLkNE0AwV7n2zyeA0P4at0cNDNPzXIeWogXtUZ+UeXYFBBCMcXdoCQhce0NAYDSPkTCCAGGBkUZT4u4qXsO1UFz0y23BfzS1GyCYHiQMaZ4tsSFckTx58uQWicjcxgkgmKtc++czMiAQZLlDgAvpuNCtpcTRNb/ETJwiMJ0d0P7Ktl8NfAg9++yzahskFxdqkfjw4iJF7vTQ6jApLewyQhkCCEbwEqA1IPAsFE7t8Yfrk3g2y1NPPaXWMTEZBhAY0uRCLI46uIr6TJJh1ICrobkKnCuXuaiJ27m0SgIIWimpfTlGBASCARfHsaPkgjoeksTFfdx3z4c1Q3omIObqfa7c5zw95wuPHDmi5rkJDoRldoamOUTOuTMf5/wZDuT8Icvi94Vl83vE35mYh98bUx5ewzJpm+nvXOtA6GZZfGgwr8lunlnAkQdX+LOTZ538l2cT8O/8nJ/xev5OO00wwEWTSUlJeO+995QtzEtbTXUwtEltWD/zMC9tM+3uMLWB5Zpsoo0sj88H2sx6WQ7tMOnKcrjw0FQur2MZLPt0+7S/S/VdogCCvv1jsk5rQCAMcIcR1xTx/A5ONXDBMHcr8ewRfn8NEUHgw4Pbu/gQIO3wC21KfAhwfzVXJfMLz8UXn3zyiQBCK+/5+oYG7Ny7v5VX6+8yIwIC9+sTDBgRYFiPWw/ZkXFrHTtn0jy3+JkSOzWeS8AV/Iw48DpCA49h5tZHbhdkB8fFdgwFEqa5zY9wwTUDnD9knYSAH374QX3xuTqf6YknnlBrCbhLgB0sV+Cz3Mcff1ydtsidFTyPgSN+bp3k4Ub8nrHjZjSDuxT+/ve/g6cMLl68WG3143eS31mCALcsctEktwXSVq414O4CnilgWqTI3Qosi506F/3xMCQugOTvBBaeF8GDifg7wYZTEzyXgQ8vnvvA8CgXIBKiCAg8e4HnGPB3Hm5ELbOzs3Hbbbcp+wkxhATqwl0j1I6QZgIW/d3l7WuRAEL76qtV6e0FCJ06dVLwzfNGXnrpJfX95aFhEyZMUN953U8xnA0Q+Hc+nPjDg0z40OQBMvxdIgituy0FEFqnk5ZX8R5lZ83OnIcRcU8/O1aeXsj9/+yceZ7BmYDAbX3ssHmIEjtNbtcjWPDLzNE3t/BxbpFbBk2RNG7bI0ATsLkQidsUeXwzO3/Ww8VK/B6ZtkmyXnbs7LB5QBAPRiJk8NwDjjYIHjwRkYBDWOFWTJ5TwEOLuPWRhyfxd3b6jHRw5wM7X3bc3E7IDplgRIg3JdrHqB8BIi4uTn1u6tAZ9uRZCpyG4fQBQYPXcAU2QYbbPtkebnskfLAewgcPMiIU8YFHgCA0MVpC7fmcIFicOHFCRW5MB1FptehSy3vlQpQlgHAhVP7jdbQnINA6Dk54PgifBYRxfs/5vTEcIDAsyK1XBAHureZRrhwJMdw4atQoNbcpgNC6G1IAoXU6aXkVjxrmCJedJPf58ywB7sPfvXu3qoZRMIb8OHpmR8cOkyN/nm3AQ424HdB0LDBH4YQDTrFxVMzTA9lRxsfHnwINjgwIFqyT/zJvnz591Aia0MFjmflQOP2gJNbNg4l48BGBhGcZsBNnZ83Dk7jtkIcCMaJHCOB3kXDDRHjgqYvszAkMPBmxf//+6owAjtIJFoSS0wGB32MeAEVbCSIc1XD08uCDD6rDoHg9DzZilILrNQggLPfSSy9VkEXtTIBA+9gu2kzYoT0sizDFaALPNOC2RLaHZXPqhraFhYWdep+Dlv7We1kCCHr30En72hMQuN6AAM5IISNv/D7zeWHIKQaOHvigI9nwvHo+oDj9wBGAAELbbnYBhLbppcXV3KfPUTY7J86Pc4qBUMARPUfuPNyHJM9OmvOC7MAYGSA0cCqNHTanCRi6Z6fOETTDghydc3RNkODomucT8KAknjTIv/H7whE16+cRxpyqYzieAMITBgkM7HA5wmbIkSNsdtAM+zPiQVhh/exICSwEHIb+WS9H7QQUHvnMegkGHLnTZoIGIYQww3MVeM3piREEtpfRC3behA5GAhji5NQB9SD0M4pALQgf/CEYmFZhUx/Om3IKwQRAzEsI4CiIAwhCBDVmGznAYHtZBs92YPSFPjHaMcla3I8CCFqo2P5ltBcgcIDB6CUP/eJ0Jb9vPOKd04iGAwQ+EDl/ykVODI8y/GlatCiA0PabVACh7ZrpOQcPRWLHbwrvcz2DXhI7d043nBnKJ+Bz8SXXM5wtER727t37m8iDXtpldDsEEIzhQa0BgbBMWOcghAMUgjSj8aadgobZxXDmGgTO2XLBFsOonEvl7gUuPBJAaPuNLoDQds0khyhgSQoIIBjDm1oDAqMF3EHEN6UymsZpx9MPQzIsIHCExPlEhj+5sIkLjhjKJEhwNCJrEFp/wwsgtF4ruVIUsEQFBBCM4VUtAWHRokVq2pHReC5A5hECZybeF5xK5OJjLkLW7UmKZ9vFwAZwYRMXVnDOla+a5bYmzpPKIsXW3fQCCK3TSa4SBSxVAQEEY3hWS0BgtJ3TfRxQcxv1hUrtcpLiuc5BYMM4d8mV3VyExKkGLlwUQGidywUQWqeTXCUKWKoCAgjG8KyWgNBRLW4XQOANzG1NJB1OJ7R0JjQhgVuauGqZe725OlurJCcpaqWk9uUY8aAk7VWQEkUB8xUQQDBfuwuZUwDhD6rNSAO3Qvn4+KiDHrRKAghaKal9OQII2msqJV5cCgggGMPfAgg69ZMAgk4dA0AAQb++EcuMoYAAgjH8JICgUz8JIOjUMQII+nWMWGYYBQQQjOEqAQSd+kkAQaeOEUDQr2PEMsMoIIBgDFcJIOjUTwIIOnWMAIJ+HSOWGUYBAQRjuEoAQad+EkDQqWMEEPTrGLHMMAoIIBjDVQIIOvWTAIJOHSOAoF/HiGWGUUAAwRiuEkDQqZ8EEHTqGAEE/TpGLDOMAgIIxnCVAIJO/SSAoFPHCCDo1zFimWEUEEAwhqsEEHTqJwEEnTpGAEG/jhHLDKOAAIIxXCWAoFM/CSDo1DECCPp1jFhmGAUEEIzhKgEEnfpJAEGnjhFA0K9jxDLDKCCAYAxXCSDo1E8CCDp1jACCfh0jlhlGAQEEY7hKAEGnfhJA0KljBBD06xixzDAKCCAYw1UCCDr1kwCCTh0jgKBfx4hlhlFAAMEYrhJA0KmfBBB06hgBBP06RiwzjAICCMZwlQCCTv0kgKBTxwgg6NcxYplhFBBAMIarBBB06icBBJ06RgBBv44RywyjgACCMVwlgKBTPwkg6NQxAgj6dYxYZhgFBBCM4SoBBJ36SQBBp44RQNCvY8QywygggGAMVwkg6NRPAgg6dYwAgn4dI5YZRgEBBGO4SgBBp34SQNCpYwQQ9OsYscwwCgggGMNVAgg69ZMAgk4dI4DQZscMHjwYffv2RW1tLebOnYuamppWlzF16lQcPXoU48aNw6pVq5CVldXqvHKhfhUQQNCvb063TABBp34SQNCpYwQQ2uSYLl264Mcff8Trr7+O0aNH48MPP0RSUhKcnJxgZWWlYMHe3h7Nzc1gp8F/HRwcUF9fj7q6Onz//ff46quvVL4bb7wRW7ZsaVP9crE+FRBA0KdfzrRKAEGnfiIgLFuzBUUlpTq10Hyz6uobsGNPvPkFdHDOqooyLPjqQ9jZ2cHa2rqDrdF39aGhofj555/xyiuvIC8vDzt27MDDDz+MadOmKcM/++wz3HPPPXB2dsYHH3yAWbNmKXhwdXXFiy++iHvvvVcAQd8uNss6SwKEyWOHw8vTwywd9J5p1pSxejfxvPY1NDShpKIKViVlVc0ebk7nzWCECxobG5FXUIz6hgYjmNsmGysrq/DKO5+2KY+eLhZAaJs3Bg4ciKioKDz66KOIjY1V/z1nzhyUlJSA9/nKlSvxySefYPny5XjhhRfw+OOP48orr8R1112nIgkSQWib3ka42pIA4eWnHkB4aLARZL8obbRIQLBkT5ZVVOK+J18xbBMFEFrvOk9PT9xxxx2YN28e7rzzTlxxxRVIS0vD888/j/LycgUJBIB3330XmzZtwqeffopnnnkGU6ZMQUhICBiBEEBovd5GuVIAwSieMr6dAggG86EAgsEc9gfM9fLywsyZMxETE4Pq6mosWbJErTPgFIOLiwtWrFgBPz8/xMXFKXDgFMPEiRNx8OBBtaCRCxy5SHHChAkqwiCLFP+AM3SUVQBBR86wcFMEEAzmYAEEgzlMzBUFNFZAAEFjQaW4syoggGCwm0MAwWAOE3NFAY0VEEDQWFApTgDBUu4BAQRL8aS0QxQwTwEBBPN0k1xtV0AiCG3XrENzCCB0qPxSuSjQ4QoIIHS4Cy4aAwQQDOZqAQSDOUzMFQU0VkAAQWNBpTiZYrCUe0AAwVI8Ke0QBcxTQADBPN0kV9sVkAhC2zXr0BwmQGjuUCvMr5znICyUkxTNF1ByXvQKnA4Ibp7ehtXDCoAclKRv9wkg6Ns/v7NOIggGc5iYKwporIAlRBBMkgggaHxzaFycAILGgrZ3cbV1dZi/bF17V9Nu5RcW5OPBu26WdzG0m8JSsKUrYAKEtz74FJ2CjH1M8eRxw+Ftoe9isIT7UADBErxooDakp6erY4DlZU0GcpqYqisFTICQkJCAyMhIXdkmxliWAgIIluVP3bdGAEH3LhIDda6AAILOHWRB5gkgWJAzjdAUAQQjeEls1LMCAgh69o5l2SaAYFn+1H1rBBB07yIxUOcKCCDo3EEWZJ4AggU50whNEUAwgpfERj0rIICgZ+9Ylm0CCJblT923RgBB9y4SA3WugACCzh1kQeYJIFiQM43QFAEEI3hJbNSzAgIIevaOZdkmgGBZ/tR9awQQdO8iMVDnCggg6NxBFmSeAIIFOdMITTEBghFsFRtFAT0rIOcg6Nk7lmGbAIJl+NEwraitrUVsbKxh7BVDRQG9KjBgwAA4Ozvr1TyxywIUEECwACdKE0QBUUAUEAVEAa0VEEDQWlEpTxQQBUQBUUAUsAAFBBAswInSBFFAFBAFRAFRQGsFBBC0VlTKEwVEAVFAFBAFLEABAQQLcKI0QRQQBUQBUUAU0FoBAQStFZXyRAFRQBQQBUQBC1BAAMECnChNEAVEAVFAFBAFtFZAAEFrRaU8UUAUEAVEAVHAAhQQQLAAJ0oTRAFRQBQQBUQBrRUQQNBaUSlPFBAFRAFRQBSwAAUEECzAidIEUUAUEAVEAVFAawUsFhCam7WW6uIuz8rq4m6/tF4UaE8F9P+8kgdqW/1vZQEPTYsEhITEVLz98Zeoratrq0/l+hYUsLW1xaf/9/w5tSktr0BqejYSU9JRWFyKpiZ5oFj6zeToYI+Q4EB0De6MkOBOsLbueIrcvGMvjhxPMZz0OXn5SE7LBKC/701FRTlyMjPQ3NxkOF070uAtK3/uyOo1qdsiAeHoiWS8+a//obZWAEGLu4SA8MV7L5+1qJqaWixYvh7FpeVaVCdlGEwBW1sbRHYLxdjhAzvc8o3bduPwseQOt6OtBmTl5iEpNaOt2S7I9RXlZcjOTEdzkwBCWwSP3bCkLZfr8loBBF26RV9GnQsQGhubsGTVJmTl5uvLaLHmgiswfuRgRHfvesHrPb1CAQTt5RdAME9TAQTzdGv3XBJB0FbicwFCUmomVq7fpm2FUpohFQjq5I+pE0bA3s6uw+wXQNBeegEE8zQVQDBPt3bPJYCgrcTnAoTVG3fgRHK6thVKaYZUwMHeHpdNHQsfb88Os18AQXvpBRDM01QAwTzd2j2XAIK2Ep8NEJqbm7Fqw3YwiiBJFKACV0yfgEB/nw4TQwBBe+kFEMzTVADBPN3aPZcAgrYSCyBoq6cllyaAYJ53ZZGiebrpOZcAgk69I4CgrWMEELTV05JLE0Awz7sCCObppudcAgg69Y4AgraOEUDQVk9LLk0AwTzvCiCYp5uecwkg6NQ7AgjaOkYAQVs9Lbk0AQTzvCuAYJ5ues4lgKBT7wggaOsYAQRt9bTk0gQQzPOuAIJ5uuk5lwCCTr0jgKCtYwQQtNXTkksTQDDPuwII5umm51wCCDr1jgCCto4RQNBWT0suTQDBPO8KIJinm55zCSDo1DsCCNo6RgBBWz0tuTQBBPO8K4Bgnm56ziWAoFPvCCBo6xgBBG31tOTSBBDM864Agnm66TmXAIJOvSOAoK1jBBC01dOSSxNAMM+7Agjm6abnXAIIOvWOAIK2jhFA0FZPSy5NAME87wogmKebnnMJIOjUOwII2jpGAEFbPS25NAEE87wrgGCebnrOJYCgU+8IIGjrGAEEbfW05NIEEMzzrgCCebrpOZcAgk69I4CgrWMEELTV05JLE0Awz7sCCObppudcAgg69Y4AgraO6ShAsLGxgZOjwy+NaUZNTR0aGht/0zhHB3vU1tWDr54+X3J1ccbQAb2xdvPOFi91d3XB2BEDsXLDdtTV1Z+vuAv+ua2NDSaPG4a6ugasOUsbaBQ1oyZNTU0X3EYBBPMkF0AwTzc95xJA0Kl3BBC0dUxHAUJQZ39MGz8C+w4mAM3AiZR02Nnawt/PGxlZuaiprcO0iSNxPDENKRlZsLayRkhQIPILi9WPKdnZ2aJrcGc4ONgjJjIMcxethpeHO4I6+SErJx9FJWXqUns7O4wY3Af7Dx+Hi4sT0jNz0TWkM4qKS1FRWY3I8BCUV1QiMycf1tZW6Na1C+rrG2BlBSSnZcHTww1Bgf7IyS9EYVEJXJydlD2l5RWqHlMK7hygPktKzYCdrQ083d1VfRWVVcjOLTh1HeGna5fOqK6pRWpGNvr1ilL2HE9KQ2JyOkK7dEZVVTXSs3IRFhKE+oZ61FTX4ZKxQ5GQmIp9B44i0N8XPl7uqi1lFZXa3hgtlCaAYJ7EAgjm6abnXAIIOvWOAIK2julIQLhk9FB88cNi1aBOAb6YNHaY6ixDOgdiyepNGDdyMDKzc5GdV4jRQ/sjv7AI/n4+2LYrTnXaTCMH94WvjxcaGhoVXPy0aDVmTB6L48mp6B4WgsWrNqnO2d7eDpdNHYeEEykICw3CohUbcN3lU3EoIVH9XlNdC3c3F9X52trYolOgL0pKy9AjMhxzF63BpZNGIzUjS3XcS1dtxuD+PVBQVApGLrbHxqvoR++Y7hjYJ1p16rRl47Y9KiqQmZ2HwAA/fPXjklPOmz1rkoKTAH8f7Ik7Am8vdwT4+WBX3EEMG9AHBUUlCPT3wd74Ixg+uC9IUSxvxOC+qvwjx5IwqF9P5BYUKr2WrtnS7lEFAQTzvnsCCObppudcAgg69Y4AgraO6UhAmD5hJI4np6uOLb+gGJxJoH9HDe0PW1sb2NhYY/OOfQjr0hmdA/2xfmssesdEICI8BPOXrlNCXD1zIlau36GunTx2GDZs24PePSKQlpGDLkEBOJGUjrTMHDgQEKaNx9HjKejWNQgLlq9XgJCTX4AAXx/s2X9EddBBgX4KKNZu3gVnJ0cVxVi3JVZFD3bHH1YjfY7cc/IKVAThREoGTiSnob6uXnXkxaVlaGpsQv8+Mdh/6BjCQjtj2eotGDWsPzKy85CcmqnsJnAsX7tVQQnhJ/7QMXQO9MOOPQdw9cxLVKTD2dkRTg4OiAjrgti4wzh6PBnspDdu34Pa2joFL2x3cOdAzF+2Do1nTNFoe6dA1U1o6ai0cdtuHD6W3FHVm12vAILZ0uk2owCCTl0jgKCtYzoSEBhB+PKXUXW30GBER4ZhzcYdmDxuOI4cS0ZIcCBi4w4hqJO/Gp2vWLcNQ/r3VHPwm3fsPdXRHjuRgtr6eowbMRhLV2/C2OED1Tx+SHAnJKVkoKq65hQg7D98DMMG9saSVZswY/IYBQwM7W/dGQcfLw8kp2ejZ2QYPD3dVUfPKYNFKzdi5JB+KuowftRg5OQWwMbWRk0tXDJmqIKJvIIiDB/YG66uLmAdhIecvEI17bF6ww4FPVm5BUhMSVd233DVNKxYuw2hXQLh7MQpj5xTgDDn6kuxcftuONjbqymI8SMHYcuuOKSkZalOemvsSVu5HiE1PVtFXuYuXiOAoO1XQ7PSBBA0k1I3BQkg6MYVvzVEAEFbx3QUIPh6e6Jf7yis2XhyUSFHwv16RaOTv4+aU48/fAyhwZ3QKyZCTQtwDUF4aBAKi0vVKNu0cNHPxwsD+8aoKQb+bNq+Bz2ju6mpgNy8QjVXz2udnZ0wbeIIzFuyDuNGDIS1jTWsYYXDx5MAWKFPj+5qVL5x+144OdojMjwUVlZWCA8NxtxFqxATFY6wLkEqpL8n/jB6RLKOTsjPL8Lu/UdUFIQ2jhkxQHXsBA9OUfCavfuPold0NxQWlyE79+R6BU6p9O8VjZq6Wuzcc1BFC3y8PFWUgNGKvr0iUVtXh9i9hzCof08cOpqI3PxCFRXp0yNSRS26BAWCixtLyyuxc88BmWLQ9quhWWkCCJpJqZuCBBB04woBhPZ0RUcBwtnaxE759F0L1lZWaPplF8OZn5nKaOnvXGjY1HRy90OnAD8MH9QbxSXlapqC6cw8XIzIxZLMERHeBTERYeBOi+PJaapzZjrdlpbKOJc9LbX3bO05V9mnf3au/O1xz8gUg3mqCiCYp5uecwkg6NQ7EkHQ1jF6AwRtW/draRxpn7mN8lx1cUcFwaS95/Xbq73tUa4AgnmqCiCYp5uecwkg6NQ7AgjaOsaSAYEh/4bGhlORhHMpx22H3Fop6ewKCCCYd3cIIJinm55zCSDo1DsCCNo6pqMB4Wxhcob3J40dqnYQmHuw0bQJI7A1Nh5l5ec+I2DMsAHw8nDDwpUbtRXXwkoTQDDPoQII5umm51wCCDr1jgCCto7pSEDgNsLo7l3VIj5TcnRwUIsReQASFwguXbMZPp4e8PP1UqCQkp6FAH9feLi5qN9PJKercwy4or+yqlrtLODOA+avrKxWOwm4sI8LB7kQkjsJCouK0TUkCG4uzipPXX29+pzbIXl2Aq8jVGTl5qvDjDg9wUWNPMCIuwou1iSAYJ7nBRDM003PuQQQdOodAQRtHdMRgMAFgYP79UREWIjaflhRVa1OQGQaOaSvOnaZnfPE0UPU/v6Jo4did9whBAb4qtMNeRbBlp37UFldA093N0R2C8HuuMNqp0J5eSUuGTMEazfHKviIO5iAKeNHqIOFWM+gvj3UgUOD+/VQZx+4ubqqUxJ9fTxRUlIGN25TPHJcnanAswcG9I7G9t371VkEjY1NWLdll7YOMFBpAgjmOUsAwTzd9JxLAEGn3hFA0NYxHQEIbIG1tTXcXJ0QFXEygsAtikyzpoxVnTqPPJ40bpg6NZF/y8w+eQQyjyt2sLdFl6BOahsgfy8tq1AnMLJMng/Acw1i9x3CmOEDVFkEja274tWxyFPGDVeHHDHt2ndI7Wbo3zsaAX7eapvjnvgj6joeVsTDmwIDfPDDglVqKyW3Xf78ywFN2nrBGKUJIJjnJwEE83TTcy4BBJ16RwBBW8d0FCCwFTbW1idH/ae9R6BHVLg6g6CkrFx1yD8sWKkiAFXV1QoA+K6CXtERqG9oQOcAP6zZtBNDB/RCflGJOn0x7kCCOu3vwJETpwCB+Tk1QADgNTwamX/jexVoQ31Do3pfQhoPSeJ5BUUl6qCj1Zt2YtTQfgIIv9xyAgjmffcEEMzTTc+5BBB06h0BBG0d05GA0FJLOKL39/X+5QCgCrVGgJ16l86BKCwuUTDh5MhDhTzUS5vY8bu6OMHPxxtZOXkqEsHredqik5OjgoKZU8Zg/6Hj6sVLPISJcMEy+EInvieB2xm5zoB1ubu5qvUNuQVFqiy+eIl18mVQ3PrIY5gv1iSAYJ7nBRDM003PuQQQdOodAQRtHaM3QNC2dSdLi4oIVWDAI5clma+AAIJ52gkgmKebnnMJIOjUOwII2jrmYgAEbRW7eEsTQDDP9wII5umm51wCCDr1jgCCto4RQNBWT0suTQDBPO8KIJinm55zCSDo1DsCCNo6RgBBWz0tuTQBBPO8K4Bgnm56ziWAoFPvCCBo6xgBBG31tOTSBBDM864Agnm66TmXAIJOvSOAoK1jBBC01dOSSxNAMM+7Agjm6abnXAIIOvWOAIK2jhFA0FZPSy5NAME87wogmKebnnMJIOjUOwII2jpGAEFbPS25NAEE87wrgGCebnrOJYCgU+8IIGjrGAEEbfW05NIEEMzzrgCCebrpOZcAgk69I4CgrWMEELTV05JLE0Awz7sCCObppudcAgg69Y4AgraOEUDQVk9LLk0AwTzvCiCYp5uecwkg6NQ7AgjaOkYAQVs9Lbk0AQTzvCuAYJ5ues4lgKBT77QHIMR0D4ezkwP27D/SYqunThipXgHMtwDqMXUK8MXMyWOxZuMOJKVltslEAYQ2yXVRXyyAYJ77BRDM003PuQQQdOodAkJFRRVCgjuhuLQM5eWVePezb9Tb/KytrdQb/kKDO+PyqePx1U9LkF9QBB9vT/U2vryCItTXN5xqGd/U5+3pgQF9YuDoYI8fF61S19rb2apr+TY/Jna+pWUVOJRwQr3Zr6mpGX4+XsjOK4Cbqws83FxRUFSCmtpa9fY/by8P1PD1wnX16nq+eZD107a6unp4urvB1dVZ/c63DTLZ2Nio1xQzX1FxKVxcnNHc3AwvD3cUFBWj5pfreK27m6nOUjQ1N+HJB25TbzL8aekaNDU2qvILiktVXaybby/kq5PHjRiEb+YtQ0lpubK/salJafj5Oy/9ztuse9WG7UhKbRtw6PS2EbM0UEAAwTwRBRDM003PuQQQdOodfmi0JwAAIABJREFUEyAcS0pVHVgzmjFsYB+MHjoA1TU16vW9OfmFmD5hFLbv2Y/0zBzMmDwGZWUV6tXA//56nmqZs5Mj7ppzlXrDX/ewEBU9SEpLx8jB/RQYJKdlYdnazaqTvu7yqaipqVMd+PJ1W1Sex++/Bf/6/Adcd9kUlJVXqA7+u/krMHvWJOQXFCMmMhyHEhKRlJqO6ZeMUa8J5uuE5y1ZjVuuuUyBQ1JqBjbt2AN7eztcNnU8Ovn7wsbGGms27USnAD/0iemO+vp6VFRV4z/fzld2s2O/9dpZp4Bh7eZduGvOlaAe38xbijtuuAKVVTWws7XByvXbVBvTsnJQUlKGmKhwVTYBq0dkOAL8fLBiw1Y8/eDtZwGEHcpGSaKAtZUVLp8+AQF+3h0mxsZtu3H4WHKH1W9uxQII5iqn33wCCDr1jQkQ2AFzVL13/2H4+Xrjv98uUKPpx+6Zg2/mLceEUUPw8Zdzcdt1l2HF+m0oLCrGUw/ejiWrN2HP/sPoFRWhwOLz7xdg2sRRauQfGR6qPs8vKsZNV8/APz78n4KFu268ElXVtQjq5I+fl61BRWU1Xnn6QXUtP98Vd0B1zBmZuXB1ccZHX/yIK6ZNgLOzI/y8vbB07WYFKg/cdh2Wr9+Km666FLHxh1QHTmgICvTHzdfMxCdf/oSBfXtg+MA+iD98DDl5BUhOy8T9t16DF/75sfLIXx66A/GHE7Bs7RbcPHsm9h44gqtnTMJPS1ZjYJ8eqK6tVVMNhJr9R45j9oxL8Oq7n6kIydQJoxRocEqiT0wkugQFgnrePeeqFr29LTYe8YeO6fROELMupAIe7q6YMWmMil51VBJA0F75ivIyZGemo7mpSfvCLbhEAQSdOtcECMeT07B643Y0NTfjnptnY8PWWJRXVKnR9P9+WIhZk8epaMFVl05U8/KHE5Lw6D1z1LRDwokURISFqAfeB//9DjdeOV3BRlhIkJoqyMjKVR3qolUb1HQCAaGyugadA/0QfzBBheXvveUazFu6BiMG9cWGbbtV3r37j2DaxJFYtyUWo4b0R1ZePhzs7HA8KRWHjyXhvluuwZc/LkZEeAjCQ4PR0NiI/32/UI3kH717DrbsigMfxIkp6fD39UbcwaMq6vHAbdeeAoQ7CStV1ViwYr2CH9Z17WVTFCCwwx/Srxc279yHkKBA7Nx7ADdeNR3PvfEvBHf2x2VTJ2DuolW4/7ZrsGbjTsREhiEhMfWsgFBSWobv5q/U6Z0gZl1IBbp1DcYlY4apabyOSgII2isvgGCepgII5unW7rlMgHD0RIoK9zN169oFf77vZtja2KjR+5HjyXjw9uvQPTwEH37+A2699jI1L88OnaN+Jk4J3H79ZRg1ZABKy8qxNTYO2/fE47G7b4K7m6sCifVbY9W1BATO26dkZOHB269HelYOAv198chzb6qOPSKsi+qMP/piLvr2jMQV0yeioLBYRQA279yLx+65Gb7envh2/jLsP3Qcf3n4drX24bNvfladuZWVFSaOHoqbZ89AcUkZXn7n3xgxqF+LgMA2cnqDUwQbtu5Wdj77yF0KENhu2tOnR3fs2ncAC1dsxN03XaUAwd7ODn999C54erhjzaYduHL6RBUpoR5niyCw7ccTU7Fm865296tUoG8FbrlmpoqIdWQSQNBefQEE8zQVQDBPt3bPdbZdDJwjtbaxQUPDyUWI7HStra3R2NgIKyuAq/VPX6BousbOzlYt5jMlG2trWNtYn7p2xOB+mDlpjIombN+9X0FIU1OTilyYEjvf+oZ61QlPGT9SLVbsGRmBhSvXqzl82sI1AXW/LJDkKMzG2kYtHjw92draoLmpWS0ePFdiebz2zPaoNgGws7f7TZtObxunYWg6ba2rr1e6fPHey2etjrYcPHJCTTVwOkTSxaMA77POAb4YPXyAWizb0UkAofUeoO/4Ha+tO7kI+mxJAKH1mp5+pQCCebq1e6722OZ4LqN9vb3g5OiArNx8BRvn67i9PN1VtIARB+5S4CJHPafzAQJtZxsIB5x+4fSGvlukZ7WNYxtB2MPdDd6e7moRrR6S3gBh2MDeShuuQ+IUIr/zLSXTIsVJY4dj0/bdanfT2dKNV12qIodc4Hyu1LdHJGZMHos3Pvj81KDo9OuHDeiNLkGdMG/pajVNKoCg7R0sgKCtnpqVdqEAgQ9IrhE4X+ID4vQIxPmu19vnrQEEvdks9lycCugNEK6/cioSk9NVpJLriJau2awGBxy5E6iLSspUBCavsAjpWblqCvHnZevUGiOuEWK0Mj07V00rRnXrCgeHkxHItZt3Ije/UG1Rbmxswonk9FORAO5u4k4mrgkZP2Iwnvn7+2rxtIO9vcrDHyZ3Vxd0DvRHeWWlAhj+neuuMnPy4OvlCQ5k6urqEHfgEJrruQA7ALW1tSoyevRYIqIju8HZyQlFxSVITklDRHhXNT2ZkZ2DtPSTW597xUSp6Ci3bGdm56rBQ4C/Lw4dOYae0ZEoLC6GFawQGhKkbDiScBwhXYKQcDxJwWegvx9y8vLRvVuYCn2eSExR27x7xkQqTY8eO6Gmf/WYBBD06BVArbp/81//O3V+QEtm8os1ckh/LFq5waxWeHq4qZ0Bn3+/8JxRA0YW7rrpKrXd8uhx422/ojgCCGbdIpKpAxTQGyBce/lkbNi6B0UlpeAZEVz8zM6aO4+iIrpi2644TL9kNOIOJoC2X3PZZAURSWkZiI4Ig4uTk1oMXVFVhd4x3bHvwFHMmjJOrSuytrKGgz2BYQRWrNuKbbvj1cLle26+Grv2HURUt1DV4S9ZtQmBhJD8Qgzq1xNvf/K1gpPo7mHqfBcHWzt1yNvPy9bipScfUIu5J4wajHVbYzF0QG/E7o1Hv17RWLtxKyLCQ9GvVw98O3chLp0yAUtXr8dl0ydh8fI1mDx+NOYuWKrq2X/o5IFyn73/D+Tk5qpIaXT3bli1biOmTZ6Au//0FD5+5+/Yt/8QYiIjsHP3XkSEh6mpWW8vT/zjvY8xevgQeHl6IDiok4KLutpaBAT4KUjo16cnYvfEY9uuPcgvOAk8eksCCHrzyC/2mABh8tjhOJGcphbmmRK3KnKBIQmZX4L3/vOdonAT0fOL6OPlqc4aKCs/SdZenm5q5p6kyrMRuHiROxoCfL3VokTOvZrWMpD0Scw8CIl/41kG3UKDcSIl/SS1u7mocB6vY2SBP/yS19bWq4eIHpMAgh69Ija1pIDeAGHO1ZeisqpKPRNy8grVOSYJiSk4eDQRI4f0Q2FRCQYP6IlPv/oZu+MP4YkHblWLpvv2jFKLkrkuibuIIsNDsHH7HqzbskvtjtoTfwj9ekWhk78fAvy9sWT1ZixfuwUx3cMwY9JYtf16UN+euPXamTiUkKQWj/Kcla5dOuOtj79SHTav5ZZpPvvKKirx0+LVePXph5CakaXq51ZpPsdqa2rh7+OF6+94CKOGDcaDd9+MHbH7sHl7LLbv2oPnn35ErVlydHRAaJcgBQ9LV65V7vnvh/+Hr76fh2MnkvB/rz6HhctWYfL4Mbjt/j/j0/ffRHpGFvr16YG4/Yfg4e4ONzcX7I07qJ67jBL869Mv8OzjD+LJv/1dRTNef/EveOfD/+C5Jx9GZWUVXvnne6oMPSYBBD16BUBKehZ2xx9Gv56RKoTHLYbxhxJUZ8zV+MWl5aqj5uh+7aadGDW0PzKy89Q2xJ179qszD5ifuyB6RXWDj7cHqqpq1NkIV8+crDr9dVt2YvzIIWphIs8u2LF7vxoZxMYdQlhIZ7i7uqovXUpapjplce7i1RjSv5cK5xFQCBgkbRL88aQ0FT7kl5oHLOktCSDozSNiz9kU0BsgXHf5FOzcd1Cd1srtyDxHhTua+Iziv1zUPHHMULz/2Xc4fCwRLz5xP/YdPIrwkCCUVVSgvr4RDY0NKCwuRZ8ekdh/KAGTx43A/GXr1IFrhIbhg/qqKQcCAqcxeCYKn0PcucVpBh58xoPeuLPKztYWPyxcqaZGTYDAU1n5HNp/+Liakli8eqM6lG377ni1pXrtxm2YPnGUOieGzzVOAXw/bxEmjh2JTdt2Ytb0yViwZCW8vDzg7uamph2ef+3/TgHCF9/OxYmkFAUIn3/zIx574C588+N8XHvFTCxZuQ6D+vfCkWOJakAVuycOefkFeOPlZ3H46HG88Pe38NwTf0JWTq5acB0Y4I9jiUnw8vDAhDEjlB2MWugxCSDo0SsAjiWm4sMvfsTkMcNUqI7hO345edjQrdfNwjv//gacIuBBRXa2dgoA8guL1OffLVihDjTiscmff7cQV146Ee999q3adcD0zMN3YsHydeochDtuvAILlq/HzElj1YFL3FZI6ueRxVwYxLk8RwcHvPTk/Vi7ZRcG9e2BV9/5VM1Bvvm3x7B5xx61aGnlhm14+qHb1XQFQ496S60FBC5UVDs3ZIWi3lzYbvZw9w9Hx/zRQ9IbIPBcFEYJTl90yEPIOBWQlpGjzksJ7uSvBh88t4UAwecRR/08sTUjO1fl5wLo/r2j4enuiqzcArU9mmsEuncNUVFMPq949DuTv68XBvfrpdY0NDU1qghq9/BQdAvtorY2M3rAzpjPK0Yhvp23DEMG9FY7piorq5GWmQ1XFycVgUjNyEbsvnjkZmWgW9cQREdG4KqZ03DHQ08gslsYesZEYefufWoKoEdUBAb2743lqzcgOydP2dKvdw+kZ2apchkR4NRD7x7RCjIyMrORlZ2LyupqjB8zAlWVVVi3aZtaUDloQF81dZCalgFnZydMGjdKPcM5pcA7beyoYWrNxYZN23+300sP9yFtEEDQiyfOsMM0xcBROb80/DIxcXrhsXtuUucZcBEPR/xcCdw7uruid35p+O4EduD9e0WreTpu4eO7Bhgm5Iif5xdwri4nt+AUINx782y1loFziqRxkjmnFPil5oPh2lmT1cKj8SMHqzMPOL3BsxB4EiIXGPHMASMDAsEgKycfcYeOqYVOpndH6PT2ELM0UoDfF4auOTod2CcG3A7c0UlvgNBaPS70Ucs8iZVRg11xh7A77qCaIjhbqqqswKTRgxHg5wsHBwcsX70Ou/bo86V0rdX7QlwngHAhVDajjnMtUuzSOQBD+vdGWmYOqqqr1Xxgv55R6NolSM25ESg4/0aYYIiNC4H69Y6Cva2d+j0kuLOao+M7HUj7nNe7/oppOHj0hJrO2HfgiJrTGzaoj1prwO1InPfjNAIfoBwFEApYFtc6cODFzrV3j+7qGpant3S+CAKhiJGUc23N0lubxB7tFGD0gOtwZs+6REF2RyYBhNapz3VUnG7gvP7p57W0lJvnIOTnZKnrG5saZQDQOoklgtBKnS74Za3ZxaCVUXwxjdoNsWJDq7Y8alXvhSznXIDAsN+385arA5UkXdwKcJX9yCF9O3S6QQBB+3tQDkoyT1OJIJinW7vnupCAwBETIwOWHFY/FyBwYdPWXXHt7lOpQP8KcNpu+iWj1E6fjkoCCNorL4BgnqYCCObp1u65LiQgtHtjdFDB2QCBaw9Wb9yBxBR53bMO3NThJvDgsMunjYefr1eH2SKAoL30AgjmaSqAYJ5u7Z5LAEFbic8FCDwAios4JYkCVICHAQX6+3SYGAII2ksvgGCepgII5unW7rkEELSVWABBWz0tuTQBBPO8e6F3MbTFSgGEtqj167UCCObp1u65BBC0lVgAQVs9Lbk0AQTzvCuAYJ5ues4lgKBT7wggaOsYAQRt9bTk0gQQzPOuAIJ5uuk5lwCCTr0jgKCtYwQQtNXTkksTQDDPuwII5umm51wCCDr1jgCCto4RQNBWT0suTQDBPO8KIJinm55zCSDo1DsCCNo6RgBBWz0tuTQBBPO8K4Bgnm56ziWAoFPvCCBo6xgBBG31tOTSBBDM864Agnm66TmXAIJOvSOAoK1jBBC01dOSSxNAMM+7Agjm6abnXAIIOvWOAIK2jhFA0FZPSy7NSIDAFxY1Nzepl6p1dBJAaF8P8IVifG105QV8GZ4AQvv61OzSBRDMlq7FjAII2uppyaXpFRAG9I6Gm5uLkr6svBLxh47h2ssmq7dPfjd/BZqams7qlsjwENTVNyAlPeus1/DtrUcSklBaXmGWe40ECA/ceTOS0zKwbNU6s9p6eiZvL09cOXMqvv5hPmpqa89a3hN/uhcpaemYu2Dpeet0c3PFR2+9imdeehNp6ZlwdHTAs4//CSOGDsDTz7+O2L2te1U1bZs8YQy+n7fovHW2dIEAglmytX8mAQRtNRZA0FZPSy5Nr4BwxbTxyMkvRGFRKfgGUi9PN0SEdUHcwQTkFxajU4CfgoTM7DwFA127dFKvNy4pq0C/XpFAM7Bz30E0NjQiMMAXfA8Jr62qrlHuHDW0H/IKitWbLItKSlFQWKKOnPZwc1XXZOcWwNfHCzl5BXB1cYajgz0aGxvh5+uN+voG7Io7AGdHR2UDX0XPMvjKeb56vrmpCYx2HDh6HC5OTggPDaY5OHD4GHy8PcHvp7W1FWysrcEXZpVXViH+YAIaf4GeLkGBCA8JUnYcPJoIdzcX1XYrWOFQQqJ62VxURFdlB19b3z0sBO7ursjIykVSajqiwrqgpqoCm7ftUq+5f/T+O5GUkoaDRxIQ1b2bsnn7rr0oLSs7+Ur7Pr1Up+zm6or9h44gNy9f/S3A3xeZ2bnYF38QA/r2goODPbw9PXHXbTfgX//+AnvjD6BPzxg10j+emIyUtAwM6t8HHu7umDJxLHbu3osdsfsQExWBmppa9d8VlZVK/769YtAluLP6e/zBI/jknb/jsWdeVlDRu2cMnn38Qfw4fwmOHktUtlGrnNw89OoRrezfEbsXQZ0Dlc1+vj5ISkmFq4sLHrn/Dnz+9Y/YvW+/qsPV1RUnklJw9NiJ836NBRDOK1HHXCCAoK3uAgja6mnJpekWEKZPQEVVFUrLKpCVk68648iIUGyLjceIwX2QnJYFvmzK3s4Ovt4eqKmrR3ZOvuqYOwf6oaGhQUUdpowfjsPHkuHi7AxHRzts3LpHdcQEBA83N2Tn5iO6exg2bd+DQf17gm87jeoWisysPIR26YSVG7ZjYJ8YFBaVICYqXEUdOgf641DCcQzo00N14p9987OClpDgQDz78F1YsGI9ggP9UV1bq4DGydEBA3ltTS3q6+rQt1c0/vfDQgT4+aC0tByzpo7DJ1/+hNz8QgU5j99/CzZu341uXbugpLQc+w4cgb+vN3pFd1fRlKiIUCSlZarOm8AQHRGG+vp6TB43Av/88Av842+P4qeFS/Hd3IVqlG8CBHb8Dg4OmDFtIhKOJeKzL78HR+9vvvQMDhw6iqrqakyaMBqfffE9Zk69BMtXr8cVM6fiP19+j1tvnK1gKXZPHO657Ua88c5HCghGDh0IG1tbXHflTHz5/TxMGj8aS1euxa03XoPFy1bjcMJxVee40cMRuyceazduUV8n1lNVVY2H7r4V3/60ELfeMPsUIERGhOOpR+7DR//5Ct27hWH25ZcqW6dOGodtO3bD18cbEd26IiMjG4GBftgXfwhTLhmLDz75H+69fY6Cl6jIcHQLC8W+/Ydw7ZWz8OTfXkV2Tt45v8oCCDp90gkgaOuYiwkQ2FZ2BnpNDIlzRNnxs+YtK6RbQJg2HmlZOcjLL0JZRSUc7O3ROyYC67bEYs5V05GcnqWiAvyJ6R6GeUvXqs7U2soKo4b1VyPT1IxszJoyFv/7frGCgsumjMWqjTtQWVWtAOHoiVTU1dXjyksnYMee/aoOQkW/XlHo2qWz6vQZdejbM1KN5EcO7oMTKRkqAnD4WCIG9+2J9dtisWbTDiVuaHAnPHrPTXj27++r0f2f7rwBeQWF8PX2UtGIvIIi5OUXIj2LHfsJzLl6hsoXGR6K1z/4r4oA0IZbrpmJ/363QEUJLp86QV0b3jVYRSMSUzOQnpmD8SMHo7isHMvXbsH0iaMULAX4++Cvf/8A9918FZ556Q2UlZWr8gkIqRmZiAjrCn8/HwQHdcKeuAP4x7sfw93NFa89/xRefP0d9T364uO3sWtPHOIPHsbi5Wvw4N23wsnJEZ07BeCf732iRvKvv/g07nn4L2qkf/3Vs5QP+vTqoaYwDh45huWr1uGZxx9EZmY2HB0dEda1CzoHBuCnBUuxcNlqFWn5y58fgr29LXrFROHbuQvVtIUpguDv54tnH38IDz/1vIIDLy9PrFi9Hv985Tlsj92jIgpdQ4KRnpmNdRu3IS09A2+//jxef+tD3HLjbDz69It48uF7VVQlJ7cAPaK74+0PPsXR44kCCHp9UJ7LLgEEbb3WUYDAUGxYaNCpxvBBxoe2KTGcG9zZH1nZ+afCqedq+cmQbaQaNbaUPNxdMbhfT2zZGXfO+VBt1W19aYSDS8YMVZ3F+q2xZ83YrWuw6ohqautaX7hGV+oWEKaPVx15aXmlGqXnFxSjZ1S4AoQZk0ajorIaDY2NalRL/dhJFZWUqfCzrY0tOgX44sDRExjSrwdSM3JUpMHG1hobtu5GY+PJCMKBI4kqHwFh3eZdGNAnRq1bIBwcOHICDY0NGDWkHzJz8rFj934FG9l5haoz3rxzLyaNGYbl67Zgy659pwDhucfuVmVxPpwj8qhuXRVMhAR3QnlFlQKE7XsOwNbWGg/dcT027diLUUP6458ffaEAgREEQkZCYjJCgzsjKTUDA/v2QFpmNgL9GPLPg5OTA6qrazBkQG8sXL4eA/r2QGJKGob064Vn//4B5lw5FS+98ba6xgQIWTm5uPPm67FizQb069NTTSWYAIERhNy8ApRVVKB/n54qRH/5jKlq7n/c6GF4/+PPceM1V+DlN99V0wzvvP4CVqzZqEb3nQL9kJySjknjx+D9T/6LSRPGYNfuOFw6dQJWrN6A/n17YW/8QQwe0BfLVq3FwqWr1dTCv999HUtXrcOlkyfimx/nnxMQ6P+NW7YrkOHzpK6uDieSUxAUGIBtO/ciPTMTb7/+Al564x08fN8d2LB5u9K/X58eiN9/GJ6e7njj7Q/P+/2SCIJGDxWtixFA0FbRjgKEoM7+mDZ+BA4cPqFGzMeSUlFbV68eqBydsKO8ZOxQ/H97ZxIVZXbF8VvMUxWDIDLIjAwOOIGCI922tuk23Sfpk9OL5GSRVfbJMqtklV0WWSdZ5didaLe2HudZQYRGUWYoqigGkaGAghKQIed/q/Gkc1TiOw/qVXHfiuF77/u+/6363u/de9/96hqbaXJyildiiIEuLC6Q1+t7mKGFhYWyW9YaF8sP6K/OXeVVQ0RYGL2an+cvOh7siONmZ6TxAxx98CABVMy9esXxWjzMFpcWaXr6JV8DxlxeyU9NezmuHB4ezrFl9MUkgj64npcvZ384RwjFREeSxRJCs7NzDDaREeEUGhrC2fSYxJYb7iUqMpIz7dE/e3M6ZWduoqbWLpr0TPH/MIEhpu67liWOkZ86cYQeNjyl/ucvKDoqihPx8BCEdqvdTAUEhAlgHzSs8kfcE2SNjeFVPfRH3B3uc6zGoRNi9FjdOvsHaX5+gX93j0/SyNg4FeZl8d/wmvPl5EbkAmCFvUQWytiUwuMkxFtpc3oqu/qfvxhlG2emp9KYe4Ind9isIC+LPJ5pqmt8yp9dHDfqHn8NCL/77a/pzMXr7MFoaGrlMQEeA899+Q+zs6/4ePxcXJDDMIJci/YuB38u0DYkxhOSKF39Q9TSYacEm5XKy0qpy+niY3AvW4vy2SOBfuW7tnIuBcZt73RQSpKNampqX3vWCvJyaNrr5e9bZflu6nG6aGLSQx1ddvYg/OkPv6fTZ7+j1JRkunbzLnmmpql4Sz5V7N5J9x8+IrvDRVtLtlBbexd//4oK86hsayndq31E5XvK+Ps1OzdHdQ2NtLWkiIoL8zmXACGA0LBQ+vDIQWpu6yCH00WDQz43f9m2Ug4TIEwBaMpI20hNCHN4X/J3sLiwgL0YyDMA0CH/ADkGABbY7Obte5SRtonvGSC0Y1sJPXnaQgX5ubS1uJCu3LhDebnZVFSQR/cf1pOzt2/Fr5IAwooS+ecAAQS9uvsTEE4craS7tY08ueJBirgu4rdJifEcj63aW8YP8aEXo+wdwAM8OSmBY6l4gKPt37OdIiLCKcQSwnHdMxduUOXeHeSemKTEeBvdr3vsm9AjwunU8SPU0e2g3Kx0On/lDv3ip8eprRsPyQReZSbGW6m3HyuzUI5DY1LG5PHNxZt0YN9OGnVP8JhNzR1UkLeZH77o19rZww/YLfnZnACHv+Fh2tTSQQcqdlJv3yC7dK/cquXJAO2jI/v5Z8AKHvpIQEtKsNGjxy28kkTCGCY3XE/l3u088Txp6aSjB/aS0zVIjU/b2F2OODoS07Bafle2vo5PjamAoOPeVnOMN+1iwOf4xNEq+vr8VYZUf7X3ed0zgPTnn52kM+cuscdjPTcBBEOtL4Cg1zD+BIST1Qeo097LK22AwZT3JcdMD5SXUWxsDK/OARDI0k7ekMDhgZItubwi+tf5ayzEzz75kK7cqmEPASZdHA+XsHvCwxNu49N2dr1isv3sZDW1dTooLzudvr10i778/GNeASKRDCtyW1wsxVtjeTK+dreOVyeI2d6qqWcwaGm3047SLQwYOB4/Axaw+qOlJaoqL6PIqEj+OScrnSd7rDgv33hAB/ftooGhYep2+FYnGPfi9Xu8akSMuOFJCyfM1TY8pV9+8QmPj1XxtHeGPQuPGpuprctBmKRv1zRwoln1wXKyxsayfl+fu8rejdVsAghq6gbSNke1O1x/vQQQDLW5AIJew/gTEI4d2kf/OH2ebwiTLrZ4ARh2lBZSR3cvpael8Oo7JjqKs7ThVdiSn8Ur9Jr6Ju6HzPO+wRccJkDC2MVrd6mqYic5XQOcxNXaaedJdhkQsPKGhwEgcbhyN7tdsVWsu8fFbtU7hwNSAAAJZElEQVTBF8Mcr4QbFu5/AMn5y3c4s7y5A1ngOQwV2C6HMbeVFNCVmzXs3dhbVsr78d1u35YwHFdcmENXb9X+AAgj1O1w8XV/fvIox64RGrHGxbBXYBkQvjh1jBy9A+zBQFb+h4cq6F7dY/7bp8cPkx3Jb+FhlBRvo6GRUdpeUkj//u66AILer4a20QQQtElpzEACCMaY4scXIoCg1zD+AgTEiLM2p1Fzmy9bGK5yrJSxnxqTIsAAbli47Tt7ejnmn5m2kT0DmMyRdIYWb7PyJIzYImKeiKtmZqRSTmY67zmHR2I5FwAeBEykcM1HRoZzvBrnQhwf29SQ94DrsYRYOM4ZFRFBO7cX01ffXqbMtFQGCSS6YaJGwlU2fh8e5W10cO8j07owN5tzG5AVj1gustKRzIZrx1a88QlfsZ0NiQkc7x6f9JCzD9vwwiguNtq3pz7J9z9s2+vp7afcrAz2KOB3hCLysjM4mQ4xcIQiEFfv6nFxqGY1m3gQ1NQVQFDTzeReAgiGWkcAQa9h/AUIeu/i3aNh2xiq7SGZ79aDhhVPjckZky8Sz8bck74QgjQOb6BAkL/a7Qf1XKcg0JoAQqBZbOXrFUBYWSO/HCGAoFf29QAI8E5gVY/VNrwEKzUcj9W8b+eB14h6/itd81r8XwBBTWUBBDXdTO4lgGCodQQQ9BrGZEBAkiDCAKquc2wVnHs1t+IEjx0O8BZgu6G0tysggKD26RBAUNPN5F4CCIZaRwBBr2H8CQiI/SMBEXUG/rdhn3pVRRln9f8/q/43qbJ7RzG1dzl/VH/gTcch8RBbK99WZEmv4oE7mgCCmu0EENR0M7mXAIKh1hFA0GsYfwECdgnA7Y+EwYamlterfLj3C3IyObt/Y0oSXbvzkKIjUXRmMyco9jj7uQgOaswPDI1wkmF6ajInFaLmPIooJSbYuB49tk5iJwEKzMBDEB0VTZ09Tq5Rn5qcxFsRsQMC2wNRmhb9kQCYlBDP5XKReIiytTMzM1yH/llr54reCL3WMWs0AQQ1ewggqOlmci8BBEOtI4Cg1zD+AgRMxJjUkc2P+gB13z/jG0M55NjYaBoeGeNti2cv3uQ6AahlgLfjjYy6X5eTRblcvAO+pDCPCyrB6wBg+OBQOW8hxG4AbI08Xl3JJZtRyRA7ER59/4wqdm+jLoeLCyghFIGaCUPDY7QxOZEr5e3aVkS1Dc+ofFcp105IT03h8rLYHrlemwCCmuUFENR0M7mXAIKh1hFA0GsYfwECyhnHxcXw2/BQzGi5mhzqA2DXAO//P7yP69p/8ekxDkOEhIZQp91X+nVPWQnNzMzxNkAUNuJaCBYLQwFehFP/pIXrHAAQPjhYweED9Dt+tJIhY35hkR49buY+u7YXU2pKEpdHRkgDlRdRgAmv5cXfT39zhaEElRrPXrih1wABNJoAgpqxBBDUdDO5lwCCodYRQNBrGH8BAu4COQgIF0x4fLUB0FBSGfXlET4ABJy5cJ2qq8rJ0TdAoSGhXKceb+obn5ziiooopQxPQ3u3g/MZevue81Y8eBCWAeFEdRW/qhcFk9I2JlNNQxOXQO7odnKRIrz0BmEJvAAH4QjUNSgpyuXqhft2b/sBEEoYPFDKeb02AQQ1ywsgqOlmci8BBEOtI4Cg1zD+BIQ33Qk8C8g9ADzgBTtjYxMUExPNpZYxwcMLgJLIMTFR/FIcvMgJ5YqRs4D3LyAHAVUM4QXAOwoQVsALjlrb7VxQCC/wwd8ABIk2K41NTHIOAnIf8OIZhDxQ4hjQsvx+BlRJxLbHiIgI9las1yaAoGZ5AQQ13UzuJYBgqHUEEPQaxjRA0Ht3vtEO7d/FHoX/fp30apwn2McUQFCzsACCmm4m9xJAMNQ6Agh6DbMeAEGvYut3NAEENdsLIKjpZnIvAQRDrSOAoNcwAgh69Qzm0QQQ1KwrgKCmm8m9BBAMtY4Agl7DCCDo1TOYRxNAULOuAIKabib3EkAw1DoCCHoNI4CgV89gHk0AQc26AghqupncSwDBUOsIIOg1jACCXj2DeTQBBDXrCiCo6WZyLwEEQ60jgKDXMAIIevUM5tEEENSsK4CgppvJvQQQDLWOAIJewwgg6NUzmEcTQFCzrgCCmm4m9xJAMNQ6Agh6DSOAoFfPYB5NAEHNugIIarqZ3EsAwVDrCCDoNYwAgl49g3k0AQQ16wogqOlmci8BBEOtI4Cg1zACCHr1DObRBBDUrCuAoKabyb0EEAy1jgCCXsMIIOjVM5hHE0BQs64AgppuJvcSQDDUOgIIeg0jgKBXz2AeTQBBzboCCGq6mdxLAMFQ6wgg6DWMAIJePYN5NAEENesKIKjpZnIvAQRDrSOAoNcw7waEWrI7+/SeUEYLSAVCQiz0+ckPKDUlyW/Xf/tBPbV09Pjt/KonFkBQVc7cfgIIhtpGAEGvYd4GCDhLXeMzanjSqveEMlpAKpAYb6NPPjpE1rgYv12/AIJ+6ac8kzTY76KlxUX9gwfxiAIIhhpXAEGvYd4FCJ4pL/3z7CVaWFjQe1IZLeAUKMrPpuqD5WSxWPx27QII+qUXQFDTVABBTbdV7yWAoFfidwHC0tISNbfbqab+Cc3PCyToVT5wRrPFxdJPjh2kxASbXy9aAEG//AIIapoKIKjptuq92roc9Oe//o1mZ+dW/Vzr4QTh4WH097/88a23ukRErR12ulvbSIvihlwPH4nX9whfwYakBDp14ghFRUb4/d5vP2iglg6736/jfS9gYGiYenpdtIQvk2FNAEHNIAIIarqteq/hUTevaBcXDfy2rfrd6z8BXMaffXx0xYE9U9M08HyYpr0vCZ4FacGtADxLCTYrpW9KIUCkCc3pGqSRMbcJl/Je1zDhmaIR9ziRgV+b2dkZmnC7fwQviCL5M5S0LC4SYyPCw4n8F9V6q51/86sv3+szYOLB8/OLND7lJcv4pHcp3hpt4jXKNYkCooAoIAqIAqLAGisggLDGgsvpRAFRQBQQBUSBQFBAACEQrCTXKAqIAqKAKCAKrLECAghrLLicThQQBUQBUUAUCAQFBBACwUpyjaKAKCAKiAKiwBorIICwxoLL6UQBUUAUEAVEgUBQQAAhEKwk1ygKiAKigCggCqyxAgIIayy4nE4UEAVEAVFAFAgEBQQQAsFKco2igCggCogCosAaKyCAsMaCy+lEAVFAFBAFRIFAUIABweOl/wBQuj/OQDuxVAAAAABJRU5ErkJggg==;" parent="1" vertex="1">
                    <mxGeometry x="-440" y="10" width="888.25" height="476.58" as="geometry"/>
                </mxCell>
                <mxCell id="26" value="" style="rounded=0;whiteSpace=wrap;html=1;strokeWidth=1;fillColor=none;strokeColor=#001DBC;fontColor=#ffffff;" parent="1" vertex="1">
                    <mxGeometry x="-435" y="14" width="470" height="46" as="geometry"/>
                </mxCell>
                <mxCell id="27" value="" style="rounded=0;whiteSpace=wrap;html=1;strokeWidth=1;fillColor=none;strokeColor=#001DBC;fontColor=#ffffff;" parent="1" vertex="1">
                    <mxGeometry x="-430" y="20" width="80" height="30" as="geometry"/>
                </mxCell>
                <mxCell id="28" value="" style="rounded=0;whiteSpace=wrap;html=1;strokeWidth=1;fillColor=none;strokeColor=#001DBC;fontColor=#ffffff;" parent="1" vertex="1">
                    <mxGeometry x="-420" y="30" width="60" height="10" as="geometry"/>
                </mxCell>
                <mxCell id="29" value="" style="rounded=0;whiteSpace=wrap;html=1;strokeWidth=1;fillColor=none;strokeColor=#001DBC;fontColor=#ffffff;" parent="1" vertex="1">
                    <mxGeometry x="-340" y="20" width="90" height="30" as="geometry"/>
                </mxCell>
                <mxCell id="30" value="" style="shape=ext;double=1;rounded=0;whiteSpace=wrap;html=1;fillColor=none;strokeColor=#001DBC;fontColor=#ffffff;strokeWidth=3;" parent="1" vertex="1">
                    <mxGeometry x="-420" y="140" width="50" height="50" as="geometry"/>
                </mxCell>
                <mxCell id="31" value="" style="shape=ext;double=1;rounded=0;whiteSpace=wrap;html=1;strokeWidth=3;fillColor=none;strokeColor=#001DBC;fontColor=#ffffff;" parent="1" vertex="1">
                    <mxGeometry x="380" y="140" width="50" height="40" as="geometry"/>
                </mxCell>
                <mxCell id="33" value="" style="rounded=0;whiteSpace=wrap;html=1;strokeWidth=1;fillColor=none;strokeColor=#001DBC;fontColor=#ffffff;" parent="1" vertex="1">
                    <mxGeometry x="-340" y="290" width="120" height="170" as="geometry"/>
                </mxCell>
                <mxCell id="34" value="" style="rounded=0;whiteSpace=wrap;html=1;strokeWidth=1;fillColor=none;strokeColor=#001DBC;fontColor=#ffffff;" parent="1" vertex="1">
                    <mxGeometry x="-180" y="280" width="200" height="80" as="geometry"/>
                </mxCell>
                <mxCell id="35" value="" style="rounded=0;whiteSpace=wrap;html=1;strokeWidth=1;fillColor=none;strokeColor=#001DBC;fontColor=#ffffff;" parent="1" vertex="1">
                    <mxGeometry x="-190" y="382" width="210" height="81" as="geometry"/>
                </mxCell>
                <mxCell id="36" value="" style="rounded=0;whiteSpace=wrap;html=1;strokeWidth=1;fillColor=none;strokeColor=#001DBC;fontColor=#ffffff;" parent="1" vertex="1">
                    <mxGeometry x="90" y="280" width="110" height="180" as="geometry"/>
                </mxCell>
                <mxCell id="37" value="" style="rounded=0;whiteSpace=wrap;html=1;strokeWidth=1;fillColor=none;strokeColor=#001DBC;fontColor=#ffffff;" parent="1" vertex="1">
                    <mxGeometry x="160" y="280" width="120" height="180" as="geometry"/>
                </mxCell>
                <mxCell id="38" value="" style="rounded=0;whiteSpace=wrap;html=1;strokeWidth=1;fillColor=none;strokeColor=#001DBC;fontColor=#ffffff;" parent="1" vertex="1">
                    <mxGeometry x="230" y="280" width="130" height="180" as="geometry"/>
                </mxCell>
                <mxCell id="39" value="" style="rounded=0;whiteSpace=wrap;html=1;strokeWidth=1;fillColor=none;strokeColor=#001DBC;fontColor=#ffffff;" parent="1" vertex="1">
                    <mxGeometry x="-350" y="110" width="180" height="110" as="geometry"/>
                </mxCell>
                <mxCell id="40" value="" style="rounded=0;whiteSpace=wrap;html=1;strokeWidth=1;fillColor=none;strokeColor=#001DBC;fontColor=#ffffff;" parent="1" vertex="1">
                    <mxGeometry x="-260" y="90" width="260" height="150" as="geometry"/>
                </mxCell>
                <mxCell id="41" value="" style="rounded=0;whiteSpace=wrap;html=1;strokeWidth=2;fillColor=none;strokeColor=#001DBC;fontColor=#ffffff;" parent="1" vertex="1">
                    <mxGeometry x="-440" y="10" width="890" height="60" as="geometry"/>
                </mxCell>
                <mxCell id="42" value="" style="rounded=0;whiteSpace=wrap;html=1;strokeWidth=1;fillColor=none;strokeColor=#001DBC;fontColor=#ffffff;" parent="1" vertex="1">
                    <mxGeometry x="10" y="90" width="260" height="150" as="geometry"/>
                </mxCell>
                <mxCell id="44" value="" style="rounded=0;whiteSpace=wrap;html=1;strokeWidth=1;fillColor=none;strokeColor=#001DBC;fontColor=#ffffff;" parent="1" vertex="1">
                    <mxGeometry x="180" y="110" width="180" height="110" as="geometry"/>
                </mxCell>
                <mxCell id="45" value="" style="rounded=0;whiteSpace=wrap;html=1;strokeWidth=1;fillColor=none;strokeColor=#001DBC;fontColor=#ffffff;" parent="1" vertex="1">
                    <mxGeometry x="-240" y="30" width="40" height="10" as="geometry"/>
                </mxCell>
                <mxCell id="46" value="" style="rounded=0;whiteSpace=wrap;html=1;strokeWidth=1;fillColor=none;strokeColor=#001DBC;fontColor=#ffffff;" parent="1" vertex="1">
                    <mxGeometry x="-190" y="30" width="60" height="10" as="geometry"/>
                </mxCell>
                <mxCell id="47" value="" style="rounded=0;whiteSpace=wrap;html=1;strokeWidth=1;fillColor=none;strokeColor=#001DBC;fontColor=#ffffff;" parent="1" vertex="1">
                    <mxGeometry x="-120" y="30" width="50" height="10" as="geometry"/>
                </mxCell>
                <mxCell id="48" value="" style="rounded=0;whiteSpace=wrap;html=1;strokeWidth=1;fillColor=none;strokeColor=#001DBC;fontColor=#ffffff;" parent="1" vertex="1">
                    <mxGeometry x="-60" y="30" width="80" height="10" as="geometry"/>
                </mxCell>
                <mxCell id="49" value="" style="rounded=0;whiteSpace=wrap;html=1;strokeWidth=1;fillColor=none;strokeColor=#001DBC;fontColor=#ffffff;" parent="1" vertex="1">
                    <mxGeometry x="180" y="30" width="160" height="20" as="geometry"/>
                </mxCell>
                <mxCell id="50" value="" style="rounded=0;whiteSpace=wrap;html=1;strokeWidth=1;fillColor=none;strokeColor=#001DBC;fontColor=#ffffff;" parent="1" vertex="1">
                    <mxGeometry x="340" y="20" width="20" height="20" as="geometry"/>
                </mxCell>
                <mxCell id="51" value="" style="rounded=0;whiteSpace=wrap;html=1;strokeWidth=1;fillColor=none;strokeColor=#001DBC;fontColor=#ffffff;" parent="1" vertex="1">
                    <mxGeometry x="370" y="20" width="20" height="20" as="geometry"/>
                </mxCell>
                <mxCell id="52" value="" style="rounded=0;whiteSpace=wrap;html=1;strokeWidth=1;fillColor=none;strokeColor=#001DBC;fontColor=#ffffff;" parent="1" vertex="1">
                    <mxGeometry x="400" y="15" width="40" height="50" as="geometry"/>
                </mxCell>
                <mxCell id="53" value="" style="rounded=0;whiteSpace=wrap;html=1;strokeWidth=1;fillColor=none;strokeColor=#001DBC;fontColor=#ffffff;" parent="1" vertex="1">
                    <mxGeometry x="409" y="47" width="20" height="14" as="geometry"/>
                </mxCell>
                <mxCell id="54" value="" style="rounded=0;whiteSpace=wrap;html=1;strokeWidth=1;fillColor=none;strokeColor=#001DBC;fontColor=#ffffff;" parent="1" vertex="1">
                    <mxGeometry x="409" y="16" width="20" height="29" as="geometry"/>
                </mxCell>
                <mxCell id="59" value="" style="rounded=0;whiteSpace=wrap;html=1;strokeWidth=1;fillColor=none;strokeColor=#001DBC;fontColor=#ffffff;" parent="1" vertex="1">
                    <mxGeometry x="160" y="15" width="284" height="50" as="geometry"/>
                </mxCell>
                <mxCell id="60" value="" style="rounded=0;whiteSpace=wrap;html=1;fillColor=none;strokeColor=#001DBC;fontColor=#ffffff;strokeWidth=5;" parent="1" vertex="1">
                    <mxGeometry x="-430" y="79" width="870" height="174" as="geometry"/>
                </mxCell>
                <mxCell id="62" value="" style="rounded=0;whiteSpace=wrap;html=1;strokeWidth=5;fillColor=none;strokeColor=#001DBC;fontColor=#ffffff;" parent="1" vertex="1">
                    <mxGeometry x="-380" y="263" width="770" height="214" as="geometry"/>
                </mxCell>
                <mxCell id="63" value="" style="rounded=0;whiteSpace=wrap;html=1;strokeWidth=2;fillColor=none;strokeColor=#001DBC;fontColor=#ffffff;" parent="1" vertex="1">
                    <mxGeometry x="-360" y="270" width="400" height="200" as="geometry"/>
                </mxCell>
                <mxCell id="65" value="" style="rounded=0;whiteSpace=wrap;html=1;strokeWidth=2;fillColor=none;strokeColor=#001DBC;fontColor=#ffffff;" parent="1" vertex="1">
                    <mxGeometry x="70" y="271" width="300" height="200" as="geometry"/>
                </mxCell>
            </root>
        </mxGraphModel>
    </diagram>
</mxfile>